<svg width="18" height="18" viewBox="0 0 18 18" fill="none" xmlns="http://www.w3.org/2000/svg">
<path d="M3.8623 14.25H4.7998L11.7373 7.31251L10.8185 6.37501L3.8623 13.3312V14.25ZM14.1373 6.48751L11.606 3.97501L12.581 3.00001C12.806 2.78751 13.0781 2.68126 13.397 2.68126C13.7156 2.68126 13.9811 2.78751 14.1935 3.00001L15.1123 3.91876C15.3248 4.14376 15.4373 4.40926 15.4498 4.71526C15.4623 5.02176 15.356 5.28126 15.131 5.49376L14.1373 6.48751ZM13.331 7.31251L5.26855 15.375H2.7373V12.8438L10.7998 4.78126L13.331 7.31251ZM11.2685 6.84376L10.8185 6.37501L11.7373 7.31251L11.2685 6.84376Z" fill="#3A3A3B"/>
</svg>
