<svg xmlns="http://www.w3.org/2000/svg" viewBox="0 0 660 344"><g fill="none" stroke-width="2"><path stroke="#e6e6e6" d="M379.49 134.21c-21.44-19.38-53.69-21.93-77.48-5.24q-22.1 15.51-26.48 43.8" vector-effect="non-scaling-stroke"/><path stroke="gray" d="m275.53 172.77-19.83.03q-.48.01-.52.48c-3.57 44.07 26.47 82.21 69.66 89.15 69.37 11.14 120.03-64.22 83.76-124.75q-.3-.5-.69-.07l-10.44 11.6q-.41.45-.14.99c17.24 34.52 2.89 75.26-32.04 91.41-21.42 9.9-47.94 7.07-66.73-6.67q-23.78-17.37-27.54-47.47-.06-.46.4-.45l3.81.02" vector-effect="non-scaling-stroke"/><path stroke="#e6e6e6" d="M275.23 187.04q.38.36.44.75c8.59 57.37 81.38 73.71 113.69 26.01q.17-.25.13-.55-.02-.14-.03-.31" vector-effect="non-scaling-stroke"/><path stroke="#f3af82" d="M389.46 212.94q.06-.15.29-.21" vector-effect="non-scaling-stroke"/><path stroke="#e6e6e6" d="M389.75 212.73q.9-.51 1.38-1.37c10.46-18.94 11.02-38.5 2.26-58.13q-1.76-3.95-2.37-7.7" vector-effect="non-scaling-stroke"/><path stroke="#f3af82" d="m391.02 145.53 12.74-14.22q.34-.37.03-.77c-43.75-56.43-133.95-36.23-147.47 34.43q-.1.52.43.52l15.1.03q.64 0 .8-.62c12.32-48.86 70.36-67.04 108.77-34.9a1.08 1.08 0 0 1 .16 1.49l-2.09 2.72" vector-effect="non-scaling-stroke"/><path stroke="#da9669" d="m391.02 145.53-30.37 34.28a.76.75-45.3 0 0 0 1.01l29.1 31.91" vector-effect="non-scaling-stroke"/><path stroke="#da9669" d="m389.46 212.94-20.2.37a2.56 2.55-20.7 0 1-2.02-.91l-21.16-25.32q-1.08-1.29-1.08-2.96v-8.45a4.24 4.22 65.6 0 1 1.03-2.77l33.46-38.69" vector-effect="non-scaling-stroke"/><path stroke="#666" d="M275.23 187.04q.14-.06.25-.14.19-.14.19-.38l-.14-13.75" vector-effect="non-scaling-stroke"/><path stroke="#666" d="M327.5 187v8.24q0 .51-.51.51c-6.66 0-17.89 1.24-23.51-1.38-12.82-5.97-9.41-29.57 6.02-29.61q12.02-.03 24.07 0 .5 0 .83-.37l14.31-15.92q.4-.46-.2-.46-17.09-.06-34.19 0-9.84.04-14.38 1.55c-27.11 9.01-24.52 55.99 3.71 62.21q2.93.64 16.24.72 10.99.06 21.88-.01a.49.49 0 0 0 .48-.49v-39.24q0-.5-.5-.5H304.2a.89.89 0 0 0-.82.54q-2.66 6.47-.78 13.21a.69.68-7.8 0 0 .66.5H327q.5 0 .5.5" vector-effect="non-scaling-stroke"/></g><path fill="#fff" d="M0 0h660v344H0V0Zm379.49 134.21c-21.44-19.38-53.69-21.93-77.48-5.24q-22.1 15.51-26.48 43.8l-19.83.03q-.48.01-.52.48c-3.57 44.07 26.47 82.21 69.66 89.15 69.37 11.14 120.03-64.22 83.76-124.75q-.3-.5-.69-.07l-10.44 11.6q-.41.45-.14.99c17.24 34.52 2.89 75.26-32.04 91.41-21.42 9.9-47.94 7.07-66.73-6.67q-23.78-17.37-27.54-47.47-.06-.46.4-.45l3.81.02q.38.36.44.75c8.59 57.37 81.38 73.71 113.69 26.01q.17-.25.13-.55-.02-.14-.03-.31.06-.15.29-.21.9-.51 1.38-1.37c10.46-18.94 11.02-38.5 2.26-58.13q-1.76-3.95-2.37-7.7l12.74-14.22q.34-.37.03-.77c-43.75-56.43-133.95-36.23-147.47 34.43q-.1.52.43.52l15.1.03q.64 0 .8-.62c12.32-48.86 70.36-67.04 108.77-34.9a1.08 1.08 0 0 1 .16 1.49l-2.09 2.72Z"/><path fill="#e75f05" d="m391.02 145.53-30.37 34.28a.76.75-45.3 0 0 0 1.01l29.1 31.91q-.23.06-.29.21l-20.2.37a2.56 2.55-20.7 0 1-2.02-.91l-21.16-25.32q-1.08-1.29-1.08-2.96v-8.45a4.24 4.22 65.6 0 1 1.03-2.77l33.46-38.69 2.09-2.72a1.08 1.08 0 0 0-.16-1.49c-38.41-32.14-96.45-13.96-108.77 34.9q-.16.62-.8.62l-15.1-.03q-.53 0-.43-.52c13.52-70.66 103.72-90.86 147.47-34.43q.31.4-.03.77l-12.74 14.22Z"/><path fill="#ccc" d="m379.49 134.21-33.46 38.69a4.24 4.22 65.6 0 0-1.03 2.77v8.45q0 1.67 1.08 2.96l21.16 25.32a2.56 2.55-20.7 0 0 2.02.91l20.2-.37q.01.17.03.31.04.3-.13.55c-32.31 47.7-105.1 31.36-113.69-26.01q-.06-.39-.44-.75.14-.06.25-.14.19-.14.19-.38l-.14-13.75q4.38-28.29 26.48-43.8c23.79-16.69 56.04-14.14 77.48 5.24ZM327.5 187v8.24q0 .51-.51.51c-6.66 0-17.89 1.24-23.51-1.38-12.82-5.97-9.41-29.57 6.02-29.61q12.02-.03 24.07 0 .5 0 .83-.37l14.31-15.92q.4-.46-.2-.46-17.09-.06-34.19 0-9.84.04-14.38 1.55c-27.11 9.01-24.52 55.99 3.71 62.21q2.93.64 16.24.72 10.99.06 21.88-.01a.49.49 0 0 0 .48-.49v-39.24q0-.5-.5-.5H304.2a.89.89 0 0 0-.82.54q-2.66 6.47-.78 13.21a.69.68-7.8 0 0 .66.5H327q.5 0 .5.5Z"/><path d="m275.53 172.77.14 13.75q0 .24-.19.38-.11.08-.25.14l-3.81-.02q-.46-.01-.4.45 3.76 30.1 27.54 47.47c18.79 13.74 45.31 16.57 66.73 6.67 34.93-16.15 49.28-56.89 32.04-91.41q-.27-.54.14-.99l10.44-11.6q.39-.43.69.07c36.27 60.53-14.39 135.89-83.76 124.75-43.19-6.94-73.23-45.08-69.66-89.15q.04-.47.52-.48l19.83-.03Z"/><path fill="#ccc" d="M391.02 145.53q.61 3.75 2.37 7.7c8.76 19.63 8.2 39.19-2.26 58.13q-.48.86-1.38 1.37l-29.1-31.91a.76.75-45.3 0 1 0-1.01l30.37-34.28Z"/><path d="M327 186.5h-23.74a.69.68-7.8 0 1-.66-.5q-1.88-6.74.78-13.21a.89.89 0 0 1 .82-.54h37.55q.5 0 .5.5v39.24a.49.49 0 0 1-.48.49q-10.89.07-21.88.01-13.31-.08-16.24-.72c-28.23-6.22-30.82-53.2-3.71-62.21q4.54-1.51 14.38-1.55 17.1-.06 34.19 0 .6 0 .2.46l-14.31 15.92q-.33.37-.83.37-12.05-.03-24.07 0c-15.43.04-18.84 23.64-6.02 29.61 5.62 2.62 16.85 1.38 23.51 1.38q.51 0 .51-.51V187q0-.5-.5-.5Z"/></svg>